{"title":"13 Assassins (2010) BRrip HDrendy Dolby Surround [Gr En Subs] Om","uid":6467573,"size":1273725291,"categoryP":"video","categoryS":"movies","magnet":"?xt=urn:btih:7484cea59b8481fe14f89ec2ddf85186f51b9876&amp;dn=13+Assassins+%282010%29+BRrip+HDrendy+Dolby+Surround+%5BGr+En+Subs%5D+Om&amp;tr=udp%3A%2F%2Ftracker.openbittorrent.com%3A80&amp;tr=udp%3A%2F%2Fopen.demonii.com%3A1337&amp;tr=udp%3A%2F%2Ftracker.coppersurfer.tk%3A6969&amp;tr=udp%3A%2F%2Fexodus.desync.com%3A6969","seeders":0,"leechers":1,"uploader":"OmifastGR","files":-1,"time":1308017137,"description":"-------------------------------------------------\nAVC (Advanced Video Coding) H264\nHigh Efficiency Dolby Digital Surround\n-------------------------------------------------\n\nSeparate Greek English Subtitles\n\nIMDB &lt;a href=&quot;\nhttp://www.imdb.com/title/tt1436045/&quot; rel=&quot;nofollow&quot; target=&quot;_NEW&quot;&gt;\nhttp://www.imdb.com/title/tt1436045/&lt;/a&gt;\n\n\n\n13 Assassins (2010) BRrip HDrendy Dolby Surround Media Info\n\nFormat                           : MPEG-4\nFormat profile                   : Base Media / Version 2\nCodec ID                         : mp42\nFile size                        : 1.16 GiB\nDuration                         : 2h 21mn\nOverall bit rate                 : 1 167 Kbps\n\nVideo\nFormat                           : AVC\nFormat/Info                      : Advanced Video Codec\nCodec ID/Info                    : Advanced Video Coding\nDuration                         : 2h 21mn\nBit rate mode                    : Variable\nBit rate                         : 1 084 Kbps\nMaximum bit rate                 : 6 022 Kbps\nWidth                            : 720 pixels\nHeight                           : 480 pixels\nDisplay aspect ratio             : 16:9\nFrame rate mode                  : Constant\nFrame rate                       : 30.000 fps\nStandard                         : NTSC\nScan type                        : Progressive\nStream size                      : 1.07 GiB (93%)\n\nAudio\nFormat                           : AAC\nFormat/Info                      : Advanced Audio Codec\nFormat profile                   : High-Efficiency \nDuration                         : 2h 21mn\nBit rate mode                    : Variable\nBit rate                         : 79.8 Kbps\nMaximum bit rate                 : 110 Kbps\nChannel(s)                       : 6 channels\nChannel positions                : Front: L C R, Side:L R, LFE\nSampling rate                    : 48.0 KHz / 24.0 KHz\nCompression mode                 : Lossy\nStream size                      : 81.0 MiB (7%)\n\n","torrent":{"xt":"urn:btih:7484cea59b8481fe14f89ec2ddf85186f51b9876","amp;dn":"13+Assassins+%282010%29+BRrip+HDrendy+Dolby+Surround+%5BGr+En+Subs%5D+Om","amp;tr":["udp%3A%2F%2Ftracker.openbittorrent.com%3A80","udp%3A%2F%2Fopen.demonii.com%3A1337","udp%3A%2F%2Ftracker.coppersurfer.tk%3A6969","udp%3A%2F%2Fexodus.desync.com%3A6969"],"infoHash":"7484cea59b8481fe14f89ec2ddf85186f51b9876","infoHashBuffer":{"type":"Buffer","data":[116,132,206,165,155,132,129,254,20,248,158,194,221,248,81,134,245,27,152,118]},"announce":[],"urlList":[]}}